<mxfile host="app.diagrams.net" agent="Mozilla/5.0 (Windows NT 10.0; Win64; x64) AppleWebKit/537.36 (KHTML, like Gecko) Chrome/139.0.0.0 Safari/537.36" version="28.2.0">
  <diagram name="Página-1" id="5rkiEfZXPF6H9u-tfzWX">
    <mxGraphModel dx="1426" dy="777" grid="1" gridSize="10" guides="1" tooltips="1" connect="1" arrows="1" fold="1" page="1" pageScale="1" pageWidth="827" pageHeight="1169" math="0" shadow="0">
      <root>
        <mxCell id="0" />
        <mxCell id="1" parent="0" />
        <mxCell id="EfPo6xXVbJCk7EmVxbgr-51" style="edgeStyle=orthogonalEdgeStyle;rounded=0;orthogonalLoop=1;jettySize=auto;html=1;exitX=1;exitY=0.5;exitDx=0;exitDy=0;entryX=0;entryY=0.5;entryDx=0;entryDy=0;" edge="1" parent="1" source="EfPo6xXVbJCk7EmVxbgr-24" target="EfPo6xXVbJCk7EmVxbgr-25">
          <mxGeometry relative="1" as="geometry" />
        </mxCell>
        <mxCell id="EfPo6xXVbJCk7EmVxbgr-24" value="Display &quot;programa de informacion personal&quot;" style="shape=parallelogram;perimeter=parallelogramPerimeter;whiteSpace=wrap;html=1;fixedSize=1;fillColor=#d5e8d4;strokeColor=#82b366;" vertex="1" parent="1">
          <mxGeometry x="245" y="200" width="150" height="60" as="geometry" />
        </mxCell>
        <mxCell id="EfPo6xXVbJCk7EmVxbgr-52" style="edgeStyle=orthogonalEdgeStyle;rounded=0;orthogonalLoop=1;jettySize=auto;html=1;exitX=1;exitY=0.5;exitDx=0;exitDy=0;" edge="1" parent="1" source="EfPo6xXVbJCk7EmVxbgr-25" target="EfPo6xXVbJCk7EmVxbgr-40">
          <mxGeometry relative="1" as="geometry" />
        </mxCell>
        <mxCell id="EfPo6xXVbJCk7EmVxbgr-25" value="Display &quot;ingrese su nombre&quot;" style="shape=parallelogram;perimeter=parallelogramPerimeter;whiteSpace=wrap;html=1;fixedSize=1;fillColor=#d5e8d4;strokeColor=#82b366;" vertex="1" parent="1">
          <mxGeometry x="420" y="200" width="150" height="60" as="geometry" />
        </mxCell>
        <mxCell id="EfPo6xXVbJCk7EmVxbgr-59" style="edgeStyle=orthogonalEdgeStyle;rounded=0;orthogonalLoop=1;jettySize=auto;html=1;exitX=1;exitY=0.5;exitDx=0;exitDy=0;entryX=0;entryY=0.5;entryDx=0;entryDy=0;" edge="1" parent="1" source="EfPo6xXVbJCk7EmVxbgr-26" target="EfPo6xXVbJCk7EmVxbgr-39">
          <mxGeometry relative="1" as="geometry" />
        </mxCell>
        <mxCell id="EfPo6xXVbJCk7EmVxbgr-26" value="Imput state" style="shape=parallelogram;perimeter=parallelogramPerimeter;whiteSpace=wrap;html=1;fixedSize=1;fillColor=#d5e8d4;strokeColor=#82b366;" vertex="1" parent="1">
          <mxGeometry x="245" y="430" width="120" height="60" as="geometry" />
        </mxCell>
        <mxCell id="EfPo6xXVbJCk7EmVxbgr-50" style="edgeStyle=orthogonalEdgeStyle;rounded=0;orthogonalLoop=1;jettySize=auto;html=1;exitX=1;exitY=0.5;exitDx=0;exitDy=0;entryX=0;entryY=0.5;entryDx=0;entryDy=0;" edge="1" parent="1" source="EfPo6xXVbJCk7EmVxbgr-30" target="EfPo6xXVbJCk7EmVxbgr-24">
          <mxGeometry relative="1" as="geometry" />
        </mxCell>
        <mxCell id="EfPo6xXVbJCk7EmVxbgr-30" value="&lt;div&gt;Declare string name, address, city, state, zip, phone, career&lt;/div&gt;" style="whiteSpace=wrap;html=1;fillColor=#d5e8d4;strokeColor=#82b366;" vertex="1" parent="1">
          <mxGeometry x="90" y="200" width="120" height="60" as="geometry" />
        </mxCell>
        <mxCell id="EfPo6xXVbJCk7EmVxbgr-32" value="Start" style="ellipse;whiteSpace=wrap;html=1;fillColor=#f8cecc;strokeColor=#b85450;" vertex="1" parent="1">
          <mxGeometry x="80" y="50" width="120" height="80" as="geometry" />
        </mxCell>
        <mxCell id="EfPo6xXVbJCk7EmVxbgr-33" style="edgeStyle=orthogonalEdgeStyle;rounded=0;orthogonalLoop=1;jettySize=auto;html=1;exitX=0.5;exitY=1;exitDx=0;exitDy=0;entryX=0.417;entryY=0.033;entryDx=0;entryDy=0;entryPerimeter=0;" edge="1" parent="1" source="EfPo6xXVbJCk7EmVxbgr-32" target="EfPo6xXVbJCk7EmVxbgr-30">
          <mxGeometry relative="1" as="geometry" />
        </mxCell>
        <mxCell id="EfPo6xXVbJCk7EmVxbgr-55" style="edgeStyle=orthogonalEdgeStyle;rounded=0;orthogonalLoop=1;jettySize=auto;html=1;exitX=0;exitY=0.5;exitDx=0;exitDy=0;entryX=1;entryY=0.5;entryDx=0;entryDy=0;" edge="1" parent="1" source="EfPo6xXVbJCk7EmVxbgr-34" target="EfPo6xXVbJCk7EmVxbgr-35">
          <mxGeometry relative="1" as="geometry" />
        </mxCell>
        <mxCell id="EfPo6xXVbJCk7EmVxbgr-34" value="Imput address" style="shape=parallelogram;perimeter=parallelogramPerimeter;whiteSpace=wrap;html=1;fixedSize=1;fillColor=#d5e8d4;strokeColor=#82b366;" vertex="1" parent="1">
          <mxGeometry x="435" y="310" width="120" height="60" as="geometry" />
        </mxCell>
        <mxCell id="EfPo6xXVbJCk7EmVxbgr-56" style="edgeStyle=orthogonalEdgeStyle;rounded=0;orthogonalLoop=1;jettySize=auto;html=1;exitX=0;exitY=0.5;exitDx=0;exitDy=0;entryX=1;entryY=0.5;entryDx=0;entryDy=0;" edge="1" parent="1" source="EfPo6xXVbJCk7EmVxbgr-35" target="EfPo6xXVbJCk7EmVxbgr-37">
          <mxGeometry relative="1" as="geometry" />
        </mxCell>
        <mxCell id="EfPo6xXVbJCk7EmVxbgr-35" value="Display &quot; ingrese su ciudad&quot;" style="shape=parallelogram;perimeter=parallelogramPerimeter;whiteSpace=wrap;html=1;fixedSize=1;fillColor=#d5e8d4;strokeColor=#82b366;" vertex="1" parent="1">
          <mxGeometry x="245" y="310" width="140" height="60" as="geometry" />
        </mxCell>
        <mxCell id="EfPo6xXVbJCk7EmVxbgr-58" style="edgeStyle=orthogonalEdgeStyle;rounded=0;orthogonalLoop=1;jettySize=auto;html=1;exitX=1;exitY=0.5;exitDx=0;exitDy=0;entryX=0;entryY=0.5;entryDx=0;entryDy=0;" edge="1" parent="1" source="EfPo6xXVbJCk7EmVxbgr-36" target="EfPo6xXVbJCk7EmVxbgr-26">
          <mxGeometry relative="1" as="geometry" />
        </mxCell>
        <mxCell id="EfPo6xXVbJCk7EmVxbgr-36" value="Display &quot; ingrese su Estado&quot;" style="shape=parallelogram;perimeter=parallelogramPerimeter;whiteSpace=wrap;html=1;fixedSize=1;fillColor=#d5e8d4;strokeColor=#82b366;" vertex="1" parent="1">
          <mxGeometry x="70" y="430" width="140" height="60" as="geometry" />
        </mxCell>
        <mxCell id="EfPo6xXVbJCk7EmVxbgr-57" style="edgeStyle=orthogonalEdgeStyle;rounded=0;orthogonalLoop=1;jettySize=auto;html=1;exitX=0.5;exitY=1;exitDx=0;exitDy=0;entryX=0.5;entryY=0;entryDx=0;entryDy=0;" edge="1" parent="1" source="EfPo6xXVbJCk7EmVxbgr-37" target="EfPo6xXVbJCk7EmVxbgr-36">
          <mxGeometry relative="1" as="geometry" />
        </mxCell>
        <mxCell id="EfPo6xXVbJCk7EmVxbgr-37" value="Imput City" style="shape=parallelogram;perimeter=parallelogramPerimeter;whiteSpace=wrap;html=1;fixedSize=1;fillColor=#d5e8d4;strokeColor=#82b366;" vertex="1" parent="1">
          <mxGeometry x="80" y="310" width="120" height="60" as="geometry" />
        </mxCell>
        <mxCell id="EfPo6xXVbJCk7EmVxbgr-54" style="edgeStyle=orthogonalEdgeStyle;rounded=0;orthogonalLoop=1;jettySize=auto;html=1;exitX=0;exitY=0.5;exitDx=0;exitDy=0;entryX=1;entryY=0.5;entryDx=0;entryDy=0;" edge="1" parent="1" source="EfPo6xXVbJCk7EmVxbgr-38" target="EfPo6xXVbJCk7EmVxbgr-34">
          <mxGeometry relative="1" as="geometry" />
        </mxCell>
        <mxCell id="EfPo6xXVbJCk7EmVxbgr-38" value="Display &quot; ingrese su direccion&quot;" style="shape=parallelogram;perimeter=parallelogramPerimeter;whiteSpace=wrap;html=1;fixedSize=1;fillColor=#d5e8d4;strokeColor=#82b366;" vertex="1" parent="1">
          <mxGeometry x="610" y="310" width="140" height="60" as="geometry" />
        </mxCell>
        <mxCell id="EfPo6xXVbJCk7EmVxbgr-63" style="edgeStyle=orthogonalEdgeStyle;rounded=0;orthogonalLoop=1;jettySize=auto;html=1;exitX=1;exitY=0.5;exitDx=0;exitDy=0;entryX=0;entryY=0.5;entryDx=0;entryDy=0;" edge="1" parent="1" source="EfPo6xXVbJCk7EmVxbgr-39" target="EfPo6xXVbJCk7EmVxbgr-43">
          <mxGeometry relative="1" as="geometry" />
        </mxCell>
        <mxCell id="EfPo6xXVbJCk7EmVxbgr-39" value="Display &quot; ingrese su codigo postal&quot;" style="shape=parallelogram;perimeter=parallelogramPerimeter;whiteSpace=wrap;html=1;fixedSize=1;fillColor=#d5e8d4;strokeColor=#82b366;" vertex="1" parent="1">
          <mxGeometry x="425" y="430" width="140" height="60" as="geometry" />
        </mxCell>
        <mxCell id="EfPo6xXVbJCk7EmVxbgr-40" value="Imput name" style="shape=parallelogram;perimeter=parallelogramPerimeter;whiteSpace=wrap;html=1;fixedSize=1;fillColor=#d5e8d4;strokeColor=#82b366;" vertex="1" parent="1">
          <mxGeometry x="630" y="200" width="120" height="60" as="geometry" />
        </mxCell>
        <mxCell id="EfPo6xXVbJCk7EmVxbgr-61" style="edgeStyle=orthogonalEdgeStyle;rounded=0;orthogonalLoop=1;jettySize=auto;html=1;exitX=0.5;exitY=1;exitDx=0;exitDy=0;entryX=0.5;entryY=0;entryDx=0;entryDy=0;" edge="1" parent="1" source="EfPo6xXVbJCk7EmVxbgr-43" target="EfPo6xXVbJCk7EmVxbgr-46">
          <mxGeometry relative="1" as="geometry" />
        </mxCell>
        <mxCell id="EfPo6xXVbJCk7EmVxbgr-43" value="Ipmut zip" style="shape=parallelogram;perimeter=parallelogramPerimeter;whiteSpace=wrap;html=1;fixedSize=1;fillColor=#d5e8d4;strokeColor=#82b366;" vertex="1" parent="1">
          <mxGeometry x="620" y="430" width="120" height="60" as="geometry" />
        </mxCell>
        <mxCell id="EfPo6xXVbJCk7EmVxbgr-66" style="edgeStyle=orthogonalEdgeStyle;rounded=0;orthogonalLoop=1;jettySize=auto;html=1;exitX=0;exitY=0.5;exitDx=0;exitDy=0;entryX=1;entryY=0.5;entryDx=0;entryDy=0;" edge="1" parent="1" source="EfPo6xXVbJCk7EmVxbgr-44" target="EfPo6xXVbJCk7EmVxbgr-45">
          <mxGeometry relative="1" as="geometry" />
        </mxCell>
        <mxCell id="EfPo6xXVbJCk7EmVxbgr-44" value="Display &quot;Ingrese su  carrera&quot;" style="shape=parallelogram;perimeter=parallelogramPerimeter;whiteSpace=wrap;html=1;fixedSize=1;fillColor=#d5e8d4;strokeColor=#82b366;" vertex="1" parent="1">
          <mxGeometry x="270" y="550" width="120" height="60" as="geometry" />
        </mxCell>
        <mxCell id="EfPo6xXVbJCk7EmVxbgr-45" value="Imput career" style="shape=parallelogram;perimeter=parallelogramPerimeter;whiteSpace=wrap;html=1;fixedSize=1;fillColor=#d5e8d4;strokeColor=#82b366;" vertex="1" parent="1">
          <mxGeometry x="80" y="550" width="120" height="60" as="geometry" />
        </mxCell>
        <mxCell id="EfPo6xXVbJCk7EmVxbgr-64" style="edgeStyle=orthogonalEdgeStyle;rounded=0;orthogonalLoop=1;jettySize=auto;html=1;exitX=0;exitY=0.5;exitDx=0;exitDy=0;entryX=1;entryY=0.5;entryDx=0;entryDy=0;" edge="1" parent="1" source="EfPo6xXVbJCk7EmVxbgr-46" target="EfPo6xXVbJCk7EmVxbgr-47">
          <mxGeometry relative="1" as="geometry" />
        </mxCell>
        <mxCell id="EfPo6xXVbJCk7EmVxbgr-46" value="Display &quot;Ingrese su numero de telefono&quot;" style="shape=parallelogram;perimeter=parallelogramPerimeter;whiteSpace=wrap;html=1;fixedSize=1;fillColor=#d5e8d4;strokeColor=#82b366;" vertex="1" parent="1">
          <mxGeometry x="610" y="550" width="140" height="60" as="geometry" />
        </mxCell>
        <mxCell id="EfPo6xXVbJCk7EmVxbgr-65" style="edgeStyle=orthogonalEdgeStyle;rounded=0;orthogonalLoop=1;jettySize=auto;html=1;exitX=0;exitY=0.5;exitDx=0;exitDy=0;entryX=1;entryY=0.5;entryDx=0;entryDy=0;" edge="1" parent="1" source="EfPo6xXVbJCk7EmVxbgr-47" target="EfPo6xXVbJCk7EmVxbgr-44">
          <mxGeometry relative="1" as="geometry" />
        </mxCell>
        <mxCell id="EfPo6xXVbJCk7EmVxbgr-47" value="Imput Phone" style="shape=parallelogram;perimeter=parallelogramPerimeter;whiteSpace=wrap;html=1;fixedSize=1;fillColor=#d5e8d4;strokeColor=#82b366;" vertex="1" parent="1">
          <mxGeometry x="435" y="550" width="120" height="60" as="geometry" />
        </mxCell>
        <mxCell id="EfPo6xXVbJCk7EmVxbgr-68" style="edgeStyle=orthogonalEdgeStyle;rounded=0;orthogonalLoop=1;jettySize=auto;html=1;exitX=1;exitY=0.5;exitDx=0;exitDy=0;" edge="1" parent="1" source="EfPo6xXVbJCk7EmVxbgr-48" target="EfPo6xXVbJCk7EmVxbgr-49">
          <mxGeometry relative="1" as="geometry" />
        </mxCell>
        <mxCell id="EfPo6xXVbJCk7EmVxbgr-48" value="Display &quot;informacion personal&quot;&#xa; Display &quot;Nombre&quot;, name&#xa; Display &quot;Direcion&quot;, address&#xa; Display &quot;Ciudad&quot;, city&#xa; Display &quot;Estado&quot;, state&#xa; Display &quot;Codigo postal&quot;, zip&#xa; Display &quot;numero de telefo&quot;, phone&#xa; Display &quot;Carrera: &quot;, career" style="shape=parallelogram;perimeter=parallelogramPerimeter;whiteSpace=wrap;html=1;fixedSize=1;fillColor=#d5e8d4;strokeColor=#82b366;" vertex="1" parent="1">
          <mxGeometry x="40" y="670" width="220" height="150" as="geometry" />
        </mxCell>
        <mxCell id="EfPo6xXVbJCk7EmVxbgr-49" value="End" style="ellipse;whiteSpace=wrap;html=1;fillColor=#f8cecc;strokeColor=#b85450;" vertex="1" parent="1">
          <mxGeometry x="340" y="705" width="120" height="80" as="geometry" />
        </mxCell>
        <mxCell id="EfPo6xXVbJCk7EmVxbgr-53" style="edgeStyle=orthogonalEdgeStyle;rounded=0;orthogonalLoop=1;jettySize=auto;html=1;exitX=0.5;exitY=1;exitDx=0;exitDy=0;" edge="1" parent="1" source="EfPo6xXVbJCk7EmVxbgr-40">
          <mxGeometry relative="1" as="geometry">
            <mxPoint x="690" y="310" as="targetPoint" />
          </mxGeometry>
        </mxCell>
        <mxCell id="EfPo6xXVbJCk7EmVxbgr-67" style="edgeStyle=orthogonalEdgeStyle;rounded=0;orthogonalLoop=1;jettySize=auto;html=1;exitX=0.5;exitY=1;exitDx=0;exitDy=0;entryX=0.455;entryY=0;entryDx=0;entryDy=0;entryPerimeter=0;" edge="1" parent="1" source="EfPo6xXVbJCk7EmVxbgr-45" target="EfPo6xXVbJCk7EmVxbgr-48">
          <mxGeometry relative="1" as="geometry" />
        </mxCell>
      </root>
    </mxGraphModel>
  </diagram>
</mxfile>
